<svg height="480pt" viewBox="0 0 480 480.00179" width="480pt" xmlns="http://www.w3.org/2000/svg"><path d="m168 104v-80c0-8.835938 7.164062-16 16-16h90.402344c3.632812 0 7.160156 1.234375 10 3.503906l35.597656 28.496094h152v272c0 17.671875-14.324219 32-32 32h-40" fill="#f98500"/><path d="m192 32h16v16h-16zm0 0" fill="#964138"/><path d="m224 32h16v16h-16zm0 0" fill="#964138"/><path d="m256 32h16v16h-16zm0 0" fill="#964138"/><path d="m408 312h32v-240h-312v32h280zm0 0" fill="#60d1e0"/><path d="m88 344v-240h320v208c0 17.671875 14.328125 32 32 32 17.675781 0 32-14.328125 32-32 0 17.671875-14.324219 32-32 32zm0 0" fill="#ffb531"/><path d="m32 136h176c13.253906 0 24 10.746094 24 24v288c0 13.253906-10.746094 24-24 24h-176c-13.253906 0-24-10.746094-24-24v-288c0-13.253906 10.746094-24 24-24zm0 0" fill="#e94f4f"/><path d="m40 184h160v64h-160zm0 0" fill="#60d1e0"/><path d="m40 184h160v16h-160zm0 0" fill="#5ac6d4"/><g fill="#ffb531"><path d="m40 280h32v32h-32zm0 0"/><path d="m104 280h32v32h-32zm0 0"/><path d="m168 280h32v32h-32zm0 0"/><path d="m40 344h32v32h-32zm0 0"/><path d="m104 344h32v32h-32zm0 0"/><path d="m168 344h32v96h-32zm0 0"/><path d="m40 408h32v32h-32zm0 0"/><path d="m104 408h32v32h-32zm0 0"/></g><path d="m160 208h16v16h-16zm0 0" fill="#3a9cc9"/><path d="m128 208h16v16h-16zm0 0" fill="#3a9cc9"/><path d="m96 208h16v16h-16zm0 0" fill="#3a9cc9"/><path d="m264 448 16 24 16-24v-128h-32zm0 0" fill="#803f37"/><path d="m296 216v104h-32v-104c0-8.835938 7.164062-16 16-16s16 7.164062 16 16zm0 0" fill="#803f37"/><path d="m336 320h-16v-72c0-4.417969-3.582031-8-8-8h-48v-16h48c13.253906 0 24 10.746094 24 24zm0 0" fill="#e0e0de"/><path d="m264 312h32v16h-32zm0 0" fill="#e0e0de"/><path d="m472 32h-149.191406l-33.390625-26.703125c-4.257813-3.421875-9.554688-5.29296875-15.015625-5.296875h-90.402344c-13.253906 0-24 10.746094-24 24v40h-32c-4.417969 0-8 3.582031-8 8v24h-32c-4.417969 0-8 3.582031-8 8v8h320v200c.03125 8.683594 2.914062 17.117188 8.207031 24h-88.207031v16h120c22.082031-.027344 39.972656-17.917969 40-40v-272c0-4.417969-3.582031-8-8-8zm-336 64v-16h296v224h-16v-200c0-4.417969-3.582031-8-8-8zm328 216c.023438 11.675781-8.378906 21.664062-19.886719 23.644531-11.503906 1.976563-22.761719-4.632812-26.640625-15.644531h22.527344c4.417969 0 8-3.582031 8-8v-240c0-4.417969-3.582031-8-8-8h-264v-40c0-4.417969 3.582031-8 8-8h90.402344c1.820312-.007812 3.589844.621094 5 1.777344l35.597656 28.46875c1.421875 1.136718 3.183594 1.753906 5 1.753906h144zm0 0"/><path d="m192 32h16v16h-16zm0 0"/><path d="m224 32h16v16h-16zm0 0"/><path d="m256 32h16v16h-16zm0 0"/><path d="m32 480h176c17.675781 0 32-14.328125 32-32v-288c0-17.671875-14.324219-32-32-32h-176c-17.671875 0-32 14.328125-32 32v288c0 17.671875 14.328125 32 32 32zm-16-320c0-8.835938 7.164062-16 16-16h176c8.835938 0 16 7.164062 16 16v288c0 8.835938-7.164062 16-16 16h-176c-8.835938 0-16-7.164062-16-16zm0 0"/><path d="m40 256h160c4.417969 0 8-3.582031 8-8v-64c0-4.417969-3.582031-8-8-8h-160c-4.417969 0-8 3.582031-8 8v64c0 4.417969 3.582031 8 8 8zm8-64h144v48h-144zm0 0"/><path d="m40 320h32c4.417969 0 8-3.582031 8-8v-32c0-4.417969-3.582031-8-8-8h-32c-4.417969 0-8 3.582031-8 8v32c0 4.417969 3.582031 8 8 8zm8-32h16v16h-16zm0 0"/><path d="m136 272h-32c-4.417969 0-8 3.582031-8 8v32c0 4.417969 3.582031 8 8 8h32c4.417969 0 8-3.582031 8-8v-32c0-4.417969-3.582031-8-8-8zm-8 32h-16v-16h16zm0 0"/><path d="m200 272h-32c-4.417969 0-8 3.582031-8 8v32c0 4.417969 3.582031 8 8 8h32c4.417969 0 8-3.582031 8-8v-32c0-4.417969-3.582031-8-8-8zm-8 32h-16v-16h16zm0 0"/><path d="m40 384h32c4.417969 0 8-3.582031 8-8v-32c0-4.417969-3.582031-8-8-8h-32c-4.417969 0-8 3.582031-8 8v32c0 4.417969 3.582031 8 8 8zm8-32h16v16h-16zm0 0"/><path d="m136 336h-32c-4.417969 0-8 3.582031-8 8v32c0 4.417969 3.582031 8 8 8h32c4.417969 0 8-3.582031 8-8v-32c0-4.417969-3.582031-8-8-8zm-8 32h-16v-16h16zm0 0"/><path d="m200 336h-32c-4.417969 0-8 3.582031-8 8v96c0 4.417969 3.582031 8 8 8h32c4.417969 0 8-3.582031 8-8v-96c0-4.417969-3.582031-8-8-8zm-8 96h-16v-80h16zm0 0"/><path d="m40 448h32c4.417969 0 8-3.582031 8-8v-32c0-4.417969-3.582031-8-8-8h-32c-4.417969 0-8 3.582031-8 8v32c0 4.417969 3.582031 8 8 8zm8-32h16v16h-16zm0 0"/><path d="m136 400h-32c-4.417969 0-8 3.582031-8 8v32c0 4.417969 3.582031 8 8 8h32c4.417969 0 8-3.582031 8-8v-32c0-4.417969-3.582031-8-8-8zm-8 32h-16v-16h16zm0 0"/><path d="m160 208h16v16h-16zm0 0"/><path d="m128 208h16v16h-16zm0 0"/><path d="m96 208h16v16h-16zm0 0"/><path d="m280 192c-13.253906 0-24 10.746094-24 24v232c.003906 1.578125.472656 3.125 1.34375 4.441406l16 24c1.484375 2.222656 3.984375 3.558594 6.65625 3.558594 2.675781 0 5.171875-1.335938 6.65625-3.558594l16-24c.875-1.316406 1.34375-2.863281 1.34375-4.441406v-208h8c4.417969 0 8 3.582031 8 8v72h16v-72c0-13.253906-10.746094-24-24-24h-8v-8c0-13.253906-10.746094-24-24-24zm0 16c4.417969 0 8 3.582031 8 8v8h-16v-8c0-4.417969 3.582031-8 8-8zm8 237.601562-8 12-8-12v-117.601562h16zm0-133.601562h-16v-72h16zm0 0"/></svg>